HIERARCHY
ROOT hip
{
	OFFSET 0.000000 0.000000 0.000000
	CHANNELS 6 Xposition Yposition Zposition Zrotation Yrotation Xrotation 
	JOINT lhipjoint
	{
		OFFSET 0.000000 0.000000 0.000000
		CHANNELS 3 Zrotation Yrotation Xrotation
		JOINT lfemur
		{
			OFFSET 1.363060 -1.794630 0.839290
			CHANNELS 3 Zrotation Yrotation Xrotation
			JOINT ltibia
			{
				OFFSET 2.448110 -6.726130 0.000000
				CHANNELS 3 Zrotation Yrotation Xrotation
				JOINT lfoot
				{
					OFFSET 2.562200 -7.039590 0.000000
					CHANNELS 3 Zrotation Yrotation Xrotation
					JOINT ltoes
					{
						OFFSET 0.157640 -0.433110 2.322550
						CHANNELS 3 Zrotation Yrotation Xrotation
						End Site
						{
							OFFSET 0.000000 0.000000 0.000000
						}
					}
				}
			}
		}
	}
	JOINT rhipjoint
	{
		OFFSET 0.000000 0.000000 0.000000
		CHANNELS 3 Zrotation Yrotation Xrotation
		JOINT rfemur
		{
			OFFSET -1.305520 -1.794630 0.839290
			CHANNELS 3 Zrotation Yrotation Xrotation
			JOINT rtibia
			{
				OFFSET -2.542530 -6.985550 0.000000
				CHANNELS 3 Zrotation Yrotation Xrotation
				JOINT rfoot
				{
					OFFSET -2.568260 -7.056230 0.000000
					CHANNELS 3 Zrotation Yrotation Xrotation
					JOINT rtoes
					{
						OFFSET -0.164730 -0.452590 2.363150
						CHANNELS 3 Zrotation Yrotation Xrotation
						End Site
						{
							OFFSET 0.000000 0.000000 0.000000
						}
					}
				}
			}
		}
	}
	JOINT lowerback
	{
		OFFSET 0.000000 0.000000 0.000000
		CHANNELS 3 Zrotation Yrotation Xrotation
		JOINT upperback
		{
			OFFSET 0.028270 2.035590 -0.193380
			CHANNELS 3 Zrotation Yrotation Xrotation
			JOINT thorax
			{
				OFFSET 0.056720 2.048850 -0.042750
				CHANNELS 3 Zrotation Yrotation Xrotation
				JOINT lowerneck
				{
					OFFSET 0.000000 0.000000 0.000000
					CHANNELS 3 Zrotation Yrotation Xrotation
					JOINT upperneck
					{
						OFFSET -0.054170 1.746240 0.172020
						CHANNELS 3 Zrotation Yrotation Xrotation
						JOINT head
						{
							OFFSET 0.104070 1.761360 -0.123970
							CHANNELS 3 Zrotation Yrotation Xrotation
							End Site
							{
								OFFSET 0.000000 0.000000 0.000000
							}
						}
					}
				}
				JOINT lclavicle
				{
					OFFSET 0.000000 0.000000 0.000000
					CHANNELS 3 Zrotation Yrotation Xrotation
					JOINT lhumerus
					{
						OFFSET 3.362410 1.200890 -0.311210
						CHANNELS 3 Zrotation Yrotation Xrotation
						JOINT lradius
						{
							OFFSET 4.983000 -0.000000 -0.000000
							CHANNELS 3 Zrotation Yrotation Xrotation
							JOINT lwrist
							{
								OFFSET 3.483560 -0.000000 -0.000000
								CHANNELS 3 Zrotation Yrotation Xrotation
								JOINT lhand
								{
									OFFSET 0.000000 0.000000 0.000000
									CHANNELS 3 Zrotation Yrotation Xrotation
									JOINT lfingers
									{
										OFFSET 0.715260 -0.000000 -0.000000
										CHANNELS 3 Zrotation Yrotation Xrotation
										End Site
										{
											OFFSET 0.000000 0.000000 0.000000
										}
									}
								}
								JOINT lthumb
								{
									OFFSET 0.000000 0.000000 0.000000
									CHANNELS 3 Zrotation Yrotation Xrotation
									End Site
									{
										OFFSET 0.000000 0.000000 0.000000
									}
								}
							}
						}
					}
				}
				JOINT rclavicle
				{
					OFFSET 0.000000 0.000000 0.000000
					CHANNELS 3 Zrotation Yrotation Xrotation
					JOINT rhumerus
					{
						OFFSET -3.136600 1.374050 -0.404650
						CHANNELS 3 Zrotation Yrotation Xrotation
						JOINT rradius
						{
							OFFSET -5.241900 -0.000000 -0.000000
							CHANNELS 3 Zrotation Yrotation Xrotation
							JOINT rwrist
							{
								OFFSET -3.444170 -0.000000 -0.000000
								CHANNELS 3 Zrotation Yrotation Xrotation
								JOINT rhand
								{
									OFFSET 0.000000 0.000000 0.000000
									CHANNELS 3 Zrotation Yrotation Xrotation
									JOINT rfingers
									{
										OFFSET -0.622530 -0.000000 -0.000000
										CHANNELS 3 Zrotation Yrotation Xrotation
										End Site
										{
											OFFSET 0.000000 0.000000 0.000000
										}
									}
								}
								JOINT rthumb
								{
									OFFSET 0.000000 0.000000 0.000000
									CHANNELS 3 Zrotation Yrotation Xrotation
									End Site
									{
										OFFSET 0.000000 0.000000 0.000000
									}
								}
							}
						}
					}
				}
			}
		}
	}
}
MOTION
Frames: 12
Frame Time: 0.008333
-1.630014 19.078773 4.183606 -173.186294 37.278735 -166.880609 7.446245 4.665204 0.626223 -21.107713 -3.824450 -35.440805 4.127130 15.019759 45.374197 2.755421 -2.823093 8.813532 0.034300 1.196000 3.288300 -9.626334 -5.593339 1.381349 27.470020 20.354021 -19.944977 -4.833132 -13.262854 44.184167 -3.411571 7.665349 -3.823228 -1.665000 8.130300 -23.110700 8.479124 0.689663 7.845829 1.007792 2.882166 1.162760 -0.803341 2.684147 13.393084 -3.955962 -10.322890 -7.557073 -0.343662 -12.841920 4.266118 -0.262700 -6.002200 -0.591100 1.923505 1.563890 3.593608 -60.600374 9.836967 44.187804 53.579287 -60.487255 -27.853548 1.542323 0.678291 9.804689 46.372512 -8.190185 -9.668000 -7.125000 0.000000 0.000000 12.421900 16.437200 -8.605900 -0.233404 0.001010 4.656745 75.755757 3.767347 27.944463 -48.357663 56.337041 -20.787995 0.082257 -2.788592 -3.547977 -14.210321 6.748952 -2.416500 7.125000 0.000000 0.000000 9.139800 -20.110500 5.509800 
-1.596765 19.086572 4.185453 -173.226267 36.936562 -167.234350 7.430920 4.654464 0.604422 -21.042329 -3.772418 -34.954330 4.094826 14.924789 45.221868 2.797251 -2.949946 8.950338 0.032500 1.164100 3.200500 -9.619827 -5.520035 1.451814 27.615980 22.154603 -19.940874 -5.216108 -13.684008 45.829230 -2.907598 5.907546 -3.546239 -1.808600 8.455400 -24.106100 7.999141 0.555239 7.812972 0.993296 2.673312 1.158682 -0.781615 2.551980 13.454782 -4.040438 -10.448304 -7.810401 -0.077474 -13.029061 4.350706 -0.101400 -6.106600 -0.386800 1.809790 1.525489 3.522238 -59.510492 9.921212 45.533166 53.730002 -60.544650 -27.920228 1.571656 0.640879 9.562970 46.576675 -8.324036 -9.815000 -7.125000 0.000000 0.000000 12.510500 16.273900 -8.715900 -0.310157 -0.007716 4.648192 76.328811 3.143276 28.026626 -47.764112 56.203251 -20.368097 0.116038 -2.828011 -3.500609 -14.356246 6.513109 -2.400200 7.125000 0.000000 0.000000 9.016700 -20.296900 5.395500 
-1.560950 19.093858 4.187710 -173.234516 36.551430 -167.600065 7.415106 4.643122 0.584888 -20.941799 -3.709674 -34.454381 4.064987 14.828391 45.073540 2.843206 -3.088352 9.079124 0.027800 1.076800 2.960300 -9.599595 -5.444162 1.523548 27.754792 23.931407 -20.175987 -5.691173 -14.185094 47.803249 -2.428525 4.336498 -3.042706 -2.116400 9.104400 -26.122300 7.525027 0.416123 7.792649 0.974481 2.451245 1.147483 -0.813408 2.420853 13.457911 -4.101072 -10.560828 -7.972388 0.234476 -13.216879 4.457582 0.089500 -6.211300 -0.185600 1.692904 1.473740 3.451858 -58.347957 9.911120 46.905888 54.008158 -60.625418 -28.072687 1.614181 0.593890 9.482334 46.711355 -8.543692 -10.015600 -7.125000 0.000000 0.000000 12.527800 16.014700 -8.800800 -0.407741 0.000255 4.646610 76.961723 2.410449 28.095748 -47.109396 56.056425 -19.906387 0.136252 -2.872580 -3.474820 -14.509729 6.423125 -2.420000 7.125000 0.000000 0.000000 8.894300 -20.330300 5.313600 
-1.523186 19.098476 4.190892 -173.253697 36.097380 -167.985274 7.397257 4.630103 0.568551 -20.829594 -3.679563 -33.946570 4.036055 14.732459 44.930484 2.905065 -3.275751 9.187938 0.022200 0.961000 2.641500 -9.568002 -5.365597 1.592918 27.860150 25.681711 -20.677644 -6.266763 -14.759559 50.113786 -1.976437 2.929971 -2.205728 -2.497000 9.832400 -28.435800 6.978506 0.231760 7.761720 0.957184 2.160038 1.130114 -0.833086 2.245645 13.420277 -4.154372 -10.631021 -8.060283 0.577086 -13.363826 4.584890 0.295600 -6.295700 0.009100 1.574942 1.406320 3.386404 -57.181533 9.861073 48.190222 54.392891 -60.732545 -28.308783 1.671990 0.536254 9.568437 46.819623 -8.911233 -10.346300 -7.125000 0.000000 0.000000 12.486800 15.562500 -8.895700 -0.513807 0.014920 4.647338 77.574554 1.594664 28.274593 -46.391034 55.892606 -19.396265 0.133709 -2.914037 -3.478791 -14.668619 6.555912 -2.492900 7.125000 0.000000 0.000000 8.778800 -20.141000 5.280800 
-1.484293 19.103094 4.195612 -173.263655 35.579569 -168.399462 7.377410 4.618365 0.560539 -20.690495 -3.693045 -33.397601 4.004953 14.629612 44.778166 2.972759 -3.482493 9.322131 0.019100 0.892900 2.454300 -9.518219 -5.291013 1.655059 27.916391 27.250110 -21.496582 -6.950219 -15.396846 52.764987 -1.590892 1.783291 -0.886357 -2.861700 10.467800 -30.505300 6.373326 0.002311 7.776831 0.937616 1.800413 1.101171 -0.895491 2.034697 13.292243 -4.141115 -10.651762 -8.046463 0.947012 -13.466691 4.728258 0.503100 -6.360000 0.185000 1.460166 1.315150 3.321961 -55.934493 9.836255 49.417058 54.942863 -60.871840 -28.677992 1.742588 0.469575 9.730614 46.921433 -9.367778 -10.754700 -7.125000 0.000000 0.000000 12.414100 14.995600 -8.996300 -0.636032 0.051814 4.652323 78.224240 0.650763 28.551912 -45.688910 55.748877 -18.878840 0.107346 -2.956872 -3.415180 -14.821335 6.906572 -2.618800 7.125000 0.000000 0.000000 8.677600 -19.729300 5.299500 
-1.443143 19.110995 4.201461 -173.242484 35.022511 -168.803969 7.353590 4.608192 0.557632 -20.514636 -3.706306 -32.833832 3.964680 14.516675 44.590861 3.043603 -3.697823 9.482957 0.015900 0.813100 2.234600 -9.452061 -5.221441 1.700067 27.904310 28.543605 -22.674694 -7.738794 -16.080322 55.739229 -1.382551 1.207772 1.114521 -3.181000 10.982400 -32.220700 5.760202 -0.224055 7.798743 0.920026 1.448123 1.074846 -0.910221 1.823944 13.159971 -4.201030 -10.687185 -7.977009 1.367890 -13.594565 4.865011 0.769200 -6.431100 0.363000 1.330784 1.216044 3.260553 -54.658174 9.714197 50.671895 55.752527 -61.084405 -29.228465 1.831877 0.397571 9.803471 47.023571 -10.036501 -11.363500 -7.125000 0.000000 0.000000 12.281700 14.139700 -9.125500 -0.752271 0.092410 4.662036 78.807033 -0.407518 28.787334 -45.120861 55.653538 -18.458177 0.076864 -2.991767 -3.422597 -14.949931 7.304556 -2.750500 7.125000 0.000000 0.000000 8.599600 -19.279200 5.338200 
-1.401171 19.122694 4.207927 -173.196295 34.425272 -169.219532 7.321715 4.601815 0.561139 -20.301512 -3.731208 -32.227649 3.911001 14.388209 44.354494 3.128182 -3.954439 9.668956 0.014700 0.781700 2.148300 -9.373985 -5.155155 1.722089 27.813959 29.561802 -24.156481 -8.631179 -16.784993 59.013883 -1.385431 1.254147 3.651999 -3.349400 11.240300 -33.094700 5.130145 -0.463713 7.852895 0.911065 1.094514 1.055815 -0.805870 1.597092 13.056100 -4.374515 -10.739619 -7.924755 1.792312 -13.736788 4.987770 1.061200 -6.504500 0.554700 1.206008 1.111589 3.211468 -53.642414 9.374643 51.755910 56.262308 -61.221632 -29.555627 1.930565 0.310539 10.020421 47.224336 -11.013749 -12.303800 -7.125000 0.000000 0.000000 12.138400 12.841500 -9.354100 -0.842728 0.123920 4.661958 79.102666 -1.416909 29.096226 -44.509848 55.497189 -18.030540 0.045010 -2.993376 -3.557908 -14.932526 7.701653 -2.843100 7.125000 0.000000 0.000000 8.631900 -18.876300 5.436900 
-1.357763 19.139524 4.215213 -173.131774 33.815757 -169.638056 7.288785 4.596554 0.567311 -20.072975 -3.748112 -31.582888 3.845247 14.241431 44.064970 3.209806 -4.203818 9.861112 0.011800 0.700000 1.923600 -9.284636 -5.088665 1.731713 27.588359 30.525338 -25.889230 -9.615836 -17.485826 62.551118 -1.616641 1.986198 6.618091 -2.878200 10.495200 -30.595700 4.492766 -0.692213 7.937758 0.897711 0.756608 1.040394 -0.728701 1.385267 12.947544 -4.511684 -10.773483 -7.833450 2.247633 -13.866108 5.103254 1.371900 -6.569200 0.734100 1.070642 1.004602 3.160723 -52.537635 8.930984 52.859537 57.107105 -61.426620 -30.117039 2.033630 0.229411 10.278602 47.323704 -11.783236 -13.005900 -7.125000 0.000000 0.000000 11.968500 11.841300 -9.472000 -0.922947 0.160252 4.667892 79.364675 -2.477722 29.440996 -44.026621 55.391826 -17.680294 0.027597 -2.995112 -3.852931 -14.882116 7.981633 -2.898800 7.125000 0.000000 0.000000 8.685700 -18.595100 5.526400 
-1.314458 19.159124 4.222806 -173.051032 33.198810 -170.072121 7.251537 4.593601 0.574737 -19.834048 -3.767572 -30.892115 3.767600 14.076623 43.718415 3.269288 -4.387682 10.078300 0.008800 0.604500 1.661100 -9.186714 -5.024268 1.718731 27.266213 31.340055 -27.809162 -10.685834 -18.157115 66.304005 -1.978839 3.140431 9.578098 -2.173400 9.218200 -26.480300 3.844833 -0.927928 8.051963 0.885444 0.421452 1.039117 -0.639941 1.177253 12.907452 -4.628722 -10.795225 -7.784786 2.716549 -13.980700 5.184500 1.686200 -6.621200 0.899300 0.926229 0.907822 3.111454 -51.448099 8.352040 53.858586 58.345229 -61.702084 -30.948794 2.132942 0.168016 10.777103 47.170787 -12.055593 -13.144400 -7.125000 0.000000 0.000000 11.747300 11.550800 -9.361000 -0.985220 0.184193 4.678131 79.681927 -3.536679 29.768187 -43.612074 55.321302 -17.376989 0.016482 -3.003496 -4.123328 -14.903256 8.205435 -2.957900 7.125000 0.000000 0.000000 8.685100 -18.358200 5.572000 
-1.270434 19.179853 4.232042 -172.948222 32.584006 -170.516698 7.213957 4.593452 0.590946 -19.575073 -3.783214 -30.164489 3.674809 13.890295 43.314499 3.338932 -4.604174 10.359321 0.009600 0.632100 1.737100 -9.077608 -4.963098 1.692163 26.864383 31.982213 -29.889202 -11.833727 -18.781187 70.237066 -2.423909 4.674183 12.224809 -1.668900 8.139500 -23.138600 3.203870 -1.147838 8.246370 0.869169 0.102550 1.027980 -0.588332 0.982797 12.779549 -4.726484 -10.802999 -7.667820 3.201682 -14.087556 5.281449 2.014300 -6.670900 1.070600 0.789931 0.788085 3.061502 -50.335765 7.786232 54.783877 59.885228 -62.001428 -31.997135 2.233079 0.117158 11.403523 46.826558 -12.038058 -12.936500 -7.125000 0.000000 0.000000 11.465900 11.685200 -9.094500 -1.066945 0.233505 4.689276 80.073691 -4.677241 30.067133 -43.174682 55.239884 -17.053344 0.008926 -3.017949 -4.434926 -14.910914 8.409408 -3.010600 7.125000 0.000000 0.000000 8.693700 -18.136300 5.620800 
-1.225384 19.207766 4.242920 -172.793020 31.988066 -170.980948 7.173588 4.598282 0.611020 -19.267309 -3.769367 -29.365511 3.571779 13.680876 42.851772 3.399152 -4.791895 10.647799 0.008400 0.592400 1.627800 -8.961280 -4.904122 1.647331 26.444913 32.485053 -32.024445 -13.056744 -19.339096 74.322062 -2.880539 6.433938 14.473220 -1.280300 7.170700 -20.222100 2.576219 -1.354800 8.532117 0.849631 -0.189753 1.021492 -0.545327 0.809990 12.671403 -4.847112 -10.818848 -7.644450 3.721973 -14.208903 5.410697 2.369800 -6.727100 1.324300 0.642607 0.662362 3.000337 -49.148427 7.118510 55.678417 61.550318 -62.280089 -33.147515 2.340946 0.067266 11.789010 46.629719 -12.113007 -12.879000 -7.125000 0.000000 0.000000 11.250900 11.653900 -8.924400 -1.157264 0.284573 4.692927 80.522150 -5.757907 30.341661 -42.630057 55.104352 -16.669209 0.005772 -3.038593 -4.680154 -14.967441 8.562219 -3.064100 7.125000 0.000000 0.000000 8.663800 -17.955400 5.635900 
-1.179102 19.239989 4.255337 -172.618197 31.399189 -171.444299 7.135276 4.604995 0.634907 -18.949911 -3.709395 -28.556513 3.459284 13.454827 42.344052 3.457380 -4.974060 10.976310 0.008000 0.578000 1.588400 -8.837387 -4.843510 1.590791 25.945929 32.941782 -34.247940 -14.369896 -19.827390 78.575818 -3.306165 8.350342 16.117520 -1.045800 6.503300 -18.252000 1.975153 -1.528810 8.875381 0.822935 -0.444401 1.010405 -0.559377 0.668573 12.522606 -4.955656 -10.860187 -7.618075 4.254130 -14.370873 5.562711 2.742400 -6.803300 1.622000 0.499635 0.519503 2.933554 -47.931110 6.216903 56.573447 63.244189 -62.494179 -34.305761 2.445281 0.030739 11.975756 46.499071 -12.104397 -12.782200 -7.125000 0.000000 0.000000 11.096600 11.705700 -8.785000 -1.272879 0.357745 4.696093 81.075577 -6.817039 30.545484 -41.941370 54.902154 -16.207761 0.005546 -3.073478 -4.809466 -15.137631 8.670766 -3.137600 7.125000 0.000000 0.000000 8.549500 -17.794200 5.590500 
